<svg width="50px" height="50px" viewBox="0 0 540 540" version="1.1" xmlns="http://www.w3.org/2000/svg">
    <g id="meerkat" fill="#C26C6C">
        <path d="M285.319738,539.572678 C280.249255,539.856293 275.14141,540 270,540 C215.497217,540 164.766268,523.850861 122.331104,496.076535 C123.407063,472.05634 126.617744,431.363624 127.629751,398.312281 C128.780101,360.742745 127.023862,323.375065 123.801,302.897 C120.399,278.099 112.7,253.998 111.7,228.998 C111.7,215.998 113.7,202.698 120.301,191.398 C126.399,180.798 135.801,172.498 146,165.998 C157.298,158.698 169.599,153.298 181.899,147.898 C199.601,140.398 217.699,133.598 236.501,129.298 C253.101,125.598 270.401,123.898 287.101,127.398 C301.801,130.398 315.601,137.398 327.001,146.998 C337.301,155.698 347.401,164.598 357.101,173.898 C367.501,183.498 377.201,193.798 387.601,203.298 C400.601,213.798 414.801,223.498 430.501,229.298 C434.599,245.897 443.599,260.897 452.699,274.998 C439.899,284.298 426.801,293.9 412.001,299.599 C393.899,295.798 376.501,288.7 360.399,279.599 C357.699,277.698 354.399,275.298 350.899,276.998 C345.899,278.798 345.501,286.498 350.199,288.998 C362.601,296.599 375.901,302.798 389.801,307.298 C389.399,308.498 388.099,308.198 387.199,308.498 C362.199,314.798 336.001,311.998 310.801,316.798 C300.201,318.998 289.001,323.397 283.101,332.998 C276.501,343.498 274.399,356.096 272.501,368.198 C271.029437,378.596627 264.496108,419.418189 268.293766,458.721797 C271.332658,490.172596 282.417206,525.351646 285.319738,539.572678 Z M312.213992,536.719273 C441.279141,516.454719 540,404.756106 540,270 C540,120.883118 419.116882,0 270,0 C120.883118,0 0,120.883118 0,270 C0,353.838488 38.2119234,428.752104 98.1696129,478.274689 C99.6344074,454.537749 104.81236,401.472398 103.801,391.099 C103.901,350.998 99.301,311.099 90.801,271.998 C87.7,256.498 84.901,240.798 85.2,224.998 C85,208.998 89.2,192.998 97.301,179.198 C106.801,162.898 121.301,150.098 137.2,140.198 C151.301,131.598 166.599,125.298 181.899,119.098 C191.501,115.4 201.199,111.8 211.1,109 C238.4,100.8 267.6,96.1 295.8,102.2 C314.9,106.3 332.4,116.2 347,128.9 C364.698,143.8 381.6,159.7 397.8,176.1 C401.6,179.7 405.198,183.5 409.4,186.5 C417.7,192.4 425.9,198.7 435.4,202.4 C441.3,205 447.7,205.3 453.7,207.3 C466.301,211.1 479.501,216.6 487.001,228 C492.801,236.2 491.301,246.9 490.301,256.2 C488.301,271.9 481.501,288 468.001,297 C455.801,306.1 443.199,314.7 429.501,321.3 C413.601,329.1 396.501,334.401 379.001,337.2 C357.001,340.8 334.399,339.3 312.501,343.599 C308.501,344.2 304.801,346.9 303.601,350.798 C299.228957,364.405985 291.905482,411.375207 295.493363,455.37205 C298.170803,488.204506 309.443153,521.807913 312.213992,536.719273 Z M191.501,177.8 C204.301,176.4 217.199,180.9 227.601,188.3 C237.501,195.6 245.701,205.5 250.401,216.9 C251.503,221 254.301,226.2 251.003,230 C248.503,233 243.201,232 241.701,228.4 C239.303,220.5 233.401,214.2 227.503,208.5 C219.201,201.1 208.401,195.4 197.003,195.8 C186.503,196 177.103,201.7 169.401,208.4 C161.601,215.4 156.002,225.3 156.002,235.9 C155.603,253.2 166.603,268.798 180.201,278.4 C184.803,282 180.803,290 175.101,288.4 C151.901,278.7 135.601,253.2 138.702,227.9 C141.202,208.5 155.303,192.1 172.401,183.4 C178.4,180.5 184.9,178.5 191.501,177.8 L191.501,177.8 Z M328.4,195.3 C336.3,188.9 348.3,188.7 356.6,194.4 C364,199 367.8,208.6 365.4,217 C362.2,229.5 347.002,236.5 335.2,231.9 C333.001,231.3 331.2,229.8 329.2,229.1 C324.302,229.5 319.4,229 314.501,228.4 C311.602,227.9 311.102,223.4 314.001,222.4 C316.9,222.2 319.802,222.5 322.7,222.6 C323.2,221.1 321.6,219.9 321.4,218.4 C318.301,210.3 321.501,200.5 328.4,195.3 Z" id="Combined-Shape"></path>
    </g>
</svg>